<?xml version="1.0" encoding="UTF-8" standalone="no"?>
<svg
   width="114.34728mm"
   height="96.902451mm"
   viewBox="10 9 114.34728 96.902451"
   version="1.1"
   id="svg1"
   xml:space="preserve"
   sodipodi:docname="new-contour3.svg"
   inkscape:version="1.3.2 (091e20ef0f, 2023-11-25, custom)"
   xmlns:inkscape="http://www.inkscape.org/namespaces/inkscape"
   xmlns:sodipodi="http://sodipodi.sourceforge.net/DTD/sodipodi-0.dtd"
   xmlns="http://www.w3.org/2000/svg"
   xmlns:svg="http://www.w3.org/2000/svg"
   xmlns:rdf="http://www.w3.org/1999/02/22-rdf-syntax-ns#"
   xmlns:cc="http://creativecommons.org/ns#"
   xmlns:dc="http://purl.org/dc/elements/1.1/"><sodipodi:namedview
     id="namedview1"
     pagecolor="#ffffff"
     bordercolor="#000000"
     borderopacity="0.25"
     inkscape:showpageshadow="2"
     inkscape:pageopacity="0.0"
     inkscape:pagecheckerboard="0"
     inkscape:deskcolor="#d1d1d1"
     inkscape:document-units="mm"
     inkscape:zoom="2.1523008"
     inkscape:cx="197.92772"
     inkscape:cy="157.97048"
     inkscape:window-width="2510"
     inkscape:window-height="1412"
     inkscape:window-x="0"
     inkscape:window-y="0"
     inkscape:window-maximized="1"
     inkscape:current-layer="svg1" /><defs
     id="defs1" /><title
     id="title1">OpenSCAD Model</title><metadata
     id="metadata3"><rdf:RDF><cc:Work
         rdf:about=""><dc:title>OpenSCAD Model</dc:title></cc:Work></rdf:RDF></metadata><path
     style="display:inline;fill:none;stroke:#187eae;stroke-opacity:1"
     d="m 115.89926,94.616767 c 5.54114,-9.379318 6.48899,-10.230744 7.08629,-12.512377 1.17871,-3.797632 0.802,-8.837521 0.78917,-14.763208 -0.0353,-6.969383 0.0326,-9.777371 -0.01,-15.356042 0.007,-11.591728 1.3842,-9.897504 -7.65466,-10.084013 -4.2661,0.04006 -6.1449,0.0069 -10.17509,0.0076 -0.11323,-5.552879 -0.16342,-12.409122 -0.23317,-19.934919 0.19067,-4.119323 -1.26455,-3.592619 -6.526436,-5.22072 C 88.108757,13.53923 74.9868,10.254167 63.109632,9.7158605 41.627417,8.3718135 25.583594,13.222857 11.905099,25.749939 c -1.9513432,1.853452 -1.275658,5.139997 -1.349466,16.084211 0.1087,18.355953 -0.01763,39.091103 0.07707,40.594184 0.09559,1.517205 1.121655,1.367374 8.569317,1.300691 14.468441,0.227219 26.952127,2.434045 36.566824,3.950133 8.690669,1.370383 19.491649,3.160436 31.617405,6.958579 12.625821,4.642459 16.875631,8.350143 20.816581,10.703203 1.19441,0.71317 3.77191,-4.2374 7.69643,-10.724173 z"
     id="path2"
     sodipodi:nodetypes="cccccccccccscscsc" /></svg>
