<?xml version="1.0" encoding="UTF-8" standalone="no"?>
<svg
   width="210mm"
   height="297mm"
   viewBox="10 9 210 297"
   version="1.1"
   id="svg1"
   xml:space="preserve"
   xmlns="http://www.w3.org/2000/svg"
   xmlns:svg="http://www.w3.org/2000/svg"
   xmlns:rdf="http://www.w3.org/1999/02/22-rdf-syntax-ns#"
   xmlns:cc="http://creativecommons.org/ns#"
   xmlns:dc="http://purl.org/dc/elements/1.1/"><defs
     id="defs1" /><title
     id="title1">OpenSCAD Model</title><metadata
     id="metadata3"><rdf:RDF><cc:Work
         rdf:about=""><dc:title>OpenSCAD Model</dc:title></cc:Work></rdf:RDF></metadata><path
     style="display:inline;fill:none;stroke:#5a18ae;stroke-opacity:1"
     d="m 131.90049,108.36552 c 2.75954,-5.20692 5.44588,-8.75302 7.78168,-14.163952 1.78718,-6.144606 1.23662,-12.749144 1.22379,-15.284758 -0.0353,-6.969383 0.0326,-12.03742 -0.0967,-14.747567 0.007,-12.113278 1.55805,-9.933349 -8.43697,-10.467558 -4.2661,0.04006 -5.18873,0.05037 -9.21892,0.05107 -0.11323,-5.552879 -0.16342,-12.242889 -0.23318,-19.768686 0.10375,-4.119323 -2.65534,-3.418769 -5.74411,-4.786095 -11.3276,-3.561566 -25.753431,-6.412004 -37.630599,-6.95031 -21.482215,-1.344047 -37.526038,3.506996 -51.204533,16.034078 -2.3816,2.713965 -1.184365,9.626209 -1.457482,13.215687 0.07475,14.40988 -0.246704,22.227152 -0.08462,36.628809 -0.09135,8.484932 -1.0058,9.481863 8.665174,9.00384 22.631392,0.196013 44.982044,3.871332 66.09803,10.213312 7.69907,2.92259 13.09746,4.91515 19.26899,8.93699 0,0 2.89585,1.61044 4.06841,1.50544 1.39347,-0.12478 2.91098,-2.73796 7.0011,-9.4203 z"
     id="path3" /></svg>
