<?xml version="1.0" encoding="UTF-8" standalone="no"?>
<svg
   width="115.26294mm"
   height="96.760811mm"
   viewBox="10 9 115.26294 96.760811"
   version="1.1"
   id="svg1"
   xml:space="preserve"
   sodipodi:docname="new-contour.svg"
   inkscape:version="1.3.2 (091e20ef0f, 2023-11-25, custom)"
   xmlns:inkscape="http://www.inkscape.org/namespaces/inkscape"
   xmlns:sodipodi="http://sodipodi.sourceforge.net/DTD/sodipodi-0.dtd"
   xmlns="http://www.w3.org/2000/svg"
   xmlns:svg="http://www.w3.org/2000/svg"
   xmlns:rdf="http://www.w3.org/1999/02/22-rdf-syntax-ns#"
   xmlns:cc="http://creativecommons.org/ns#"
   xmlns:dc="http://purl.org/dc/elements/1.1/"><sodipodi:namedview
     id="namedview1"
     pagecolor="#ffffff"
     bordercolor="#000000"
     borderopacity="0.25"
     inkscape:showpageshadow="2"
     inkscape:pageopacity="0.0"
     inkscape:pagecheckerboard="0"
     inkscape:deskcolor="#d1d1d1"
     inkscape:document-units="mm"
     inkscape:zoom="1.0761504"
     inkscape:cx="335.45497"
     inkscape:cy="513.8687"
     inkscape:window-width="2510"
     inkscape:window-height="1412"
     inkscape:window-x="0"
     inkscape:window-y="0"
     inkscape:window-maximized="1"
     inkscape:current-layer="svg1" /><defs
     id="defs1" /><title
     id="title1">OpenSCAD Model</title><metadata
     id="metadata3"><rdf:RDF><cc:Work
         rdf:about=""><dc:title>OpenSCAD Model</dc:title></cc:Work></rdf:RDF></metadata><path
     style="display:inline;fill:none;stroke:#5a18ae;stroke-opacity:1"
     d="m 115.66491,95.833717 c 2.75954,-5.20692 5.44588,-8.75302 7.78168,-14.163952 1.78718,-6.144606 1.23662,-12.749144 1.22379,-15.284758 -0.0353,-6.969383 0.0326,-12.03742 -0.0967,-14.747567 0.007,-12.113278 1.55805,-9.933349 -8.43697,-10.467558 -4.2661,0.04006 -5.18873,0.05037 -9.21892,0.05107 -0.11323,-5.552879 -0.16342,-12.242889 -0.23318,-19.768686 0.10375,-4.119323 -2.65534,-3.418769 -5.74411,-4.786095 C 89.612898,13.104605 75.187067,10.254167 63.309899,9.7158605 41.827684,8.3718135 25.783861,13.222857 12.105366,25.749939 c -2.3816,2.713965 -1.184365,9.626209 -1.457482,13.215687 0.07475,14.40988 -0.246704,22.227152 -0.08462,36.628809 -0.09135,8.484932 -1.0058,9.481863 8.665174,9.00384 22.631392,0.196013 44.982044,3.871332 66.09803,10.213312 7.69907,2.92259 13.09746,4.91515 19.268992,8.936993 0,0 2.89585,1.61044 4.06841,1.50544 1.39347,-0.12478 2.91098,-2.73796 7.0011,-9.420303 z"
     id="path3" /></svg>
